<?xml version="1.0" encoding="utf-8"?>
<svg viewBox="0 0.066 261.661 239.609" xmlns="http://www.w3.org/2000/svg" xmlns:bx="https://boxy-svg.com">
  <defs>
    <bx:grid x="0.616" y="0.066" width="306.376" height="306.376"/>
    <radialGradient gradientUnits="userSpaceOnUse" cx="185.651" cy="75.991" r="42.39" id="gradient-0" gradientTransform="matrix(1, 0, 0, 1, -55.071437, -47.323673)">
      <stop offset="0" style="stop-color: rgba(80, 80, 80, 1)"/>
      <stop offset="1" style="stop-color: rgba(29, 29, 29, 1)"/>
    </radialGradient>
    <radialGradient gradientUnits="userSpaceOnUse" cx="274.296" cy="104.496" r="20.319" id="gradient-1" gradientTransform="matrix(1, 0, 0, 1, -55.066414, -47.324257)">
      <stop offset="0" style="stop-color: rgba(80, 80, 80, 1)"/>
      <stop offset="1" style="stop-color: rgba(29, 29, 29, 1)"/>
    </radialGradient>
    <radialGradient gradientUnits="userSpaceOnUse" cx="218.779" cy="120.889" r="15.833" id="gradient-2" gradientTransform="matrix(1, 0, 0, 1, -55.071437, -47.323673)">
      <stop offset="0" style="stop-color: rgba(80, 80, 80, 1)"/>
      <stop offset="1" style="stop-color: rgba(29, 29, 29, 1)"/>
    </radialGradient>
    <radialGradient gradientUnits="userSpaceOnUse" cx="98.497" cy="103.748" r="20.319" id="gradient-3" gradientTransform="matrix(1, 0, 0, 1, -55.071437, -47.323673)">
      <stop offset="0" style="stop-color: rgba(80, 80, 80, 1)"/>
      <stop offset="1" style="stop-color: rgba(29, 29, 29, 1)"/>
    </radialGradient>
    <radialGradient gradientUnits="userSpaceOnUse" cx="91.778" cy="187.313" r="20.319" id="gradient-4" gradientTransform="matrix(1, 0, 0, 1, -55.070058, -47.323076)">
      <stop offset="0" style="stop-color: rgba(80, 80, 80, 1)"/>
      <stop offset="1" style="stop-color: rgba(29, 29, 29, 1)"/>
    </radialGradient>
    <radialGradient gradientUnits="userSpaceOnUse" cx="136.004" cy="171.739" r="15.833" id="gradient-5" gradientTransform="matrix(1, 0, 0, 1, -55.071437, -47.323673)">
      <stop offset="0" style="stop-color: rgba(80, 80, 80, 1)"/>
      <stop offset="1" style="stop-color: rgba(29, 29, 29, 1)"/>
    </radialGradient>
    <radialGradient gradientUnits="userSpaceOnUse" cx="152.115" cy="120.421" r="15.833" id="gradient-6" gradientTransform="matrix(1, 0, 0, 1, -55.071437, -47.323673)">
      <stop offset="0" style="stop-color: rgba(80, 80, 80, 1)"/>
      <stop offset="1" style="stop-color: rgba(29, 29, 29, 1)"/>
    </radialGradient>
    <radialGradient gradientUnits="userSpaceOnUse" cx="152.043" cy="221.034" r="15.833" id="gradient-7" gradientTransform="matrix(1, 0, 0, 1, -55.071437, -47.323673)">
      <stop offset="0" style="stop-color: rgba(80, 80, 80, 1)"/>
      <stop offset="1" style="stop-color: rgba(29, 29, 29, 1)"/>
    </radialGradient>
    <radialGradient gradientUnits="userSpaceOnUse" cx="123.47" cy="254.134" r="20.319" id="gradient-8" gradientTransform="matrix(1, 0, 0, 1, -55.071437, -47.323673)">
      <stop offset="0" style="stop-color: rgba(80, 80, 80, 1)"/>
      <stop offset="1" style="stop-color: rgba(29, 29, 29, 1)"/>
    </radialGradient>
    <radialGradient gradientUnits="userSpaceOnUse" cx="219.378" cy="-221.4" r="15.833" id="gradient-9" gradientTransform="matrix(1, 0, 0, 1, -55.071437, 47.323673)">
      <stop offset="0" style="stop-color: rgba(80, 80, 80, 1)"/>
      <stop offset="1" style="stop-color: rgba(29, 29, 29, 1)"/>
    </radialGradient>
    <radialGradient gradientUnits="userSpaceOnUse" cx="235.174" cy="171.736" r="15.833" id="gradient-10" gradientTransform="matrix(1, 0, 0, 1, -55.071437, -47.323673)">
      <stop offset="0" style="stop-color: rgba(80, 80, 80, 1)"/>
      <stop offset="1" style="stop-color: rgba(29, 29, 29, 1)"/>
    </radialGradient>
    <radialGradient gradientUnits="userSpaceOnUse" cx="280.024" cy="186.931" r="20.319" id="gradient-11" gradientTransform="matrix(1, 0, 0, 1, -55.06737, -47.324685)">
      <stop offset="0" style="stop-color: rgba(80, 80, 80, 1)"/>
      <stop offset="1" style="stop-color: rgba(29, 29, 29, 1)"/>
    </radialGradient>
    <radialGradient gradientUnits="userSpaceOnUse" cx="248.332" cy="253.37" r="20.319" id="gradient-12" gradientTransform="matrix(1, 0, 0, 1, -55.066444, -47.324249)">
      <stop offset="0" style="stop-color: rgba(80, 80, 80, 1)"/>
      <stop offset="1" style="stop-color: rgba(29, 29, 29, 1)"/>
    </radialGradient>
    <radialGradient gradientUnits="userSpaceOnUse" cx="184.917" cy="163.167" r="81.665" id="gradient-13" gradientTransform="matrix(1, 0, 0, 1, -55.071437, -47.323673)">
      <stop offset="0" style="stop-color: rgb(254, 77, 27);"/>
      <stop offset="1" style="stop-color: rgb(205, 47, 17);"/>
    </radialGradient>
  </defs>
  <path d="M 236.301 123.788 C 236.301 130.643 231.944 136.481 225.848 138.683 C 226.598 153.347 229.817 155.214 245.273 159.153 L 240.386 171.257 C 218.664 162.29 214.963 160.576 213.676 138.094 C 208.331 135.551 204.636 130.101 204.636 123.788 C 204.636 115.044 211.725 107.955 220.468 107.955 C 229.212 107.955 236.301 115.044 236.301 123.788 Z" style="stroke: rgb(0, 0, 0); fill: url(#gradient-11);" transform="matrix(-0.755174, 0.655524, -0.655524, -0.755174, 486.349433, 97.569703)"/>
  <path d="M 204.61 190.228 C 204.61 197.083 200.253 202.921 194.157 205.123 C 194.907 219.787 198.126 221.654 213.582 225.593 L 208.695 237.697 C 186.973 228.73 183.272 227.016 181.985 204.534 C 176.639 201.991 172.944 196.541 172.944 190.228 C 172.944 181.484 180.033 174.395 188.777 174.395 C 197.521 174.395 204.61 181.484 204.61 190.228 Z" style="stroke: rgb(0, 0, 0); fill: url(#gradient-12);" transform="matrix(-1, 0, 0, -1, 386.526001, 412.09201)"/>
  <path d="M 79.748 222.628 C 79.748 215.773 75.391 209.935 69.295 207.733 C 70.045 193.069 73.264 191.202 88.72 187.263 L 83.833 175.159 C 62.111 184.126 58.41 185.84 57.123 208.322 C 51.777 210.865 48.082 216.315 48.082 222.628 C 48.082 231.372 55.171 238.461 63.915 238.461 C 72.659 238.461 79.748 231.372 79.748 222.628 Z" style="stroke: rgb(0, 0, 0); fill: url(#gradient-8);"/>
  <path d="M 48.055 155.805 C 48.055 148.951 43.698 143.113 37.602 140.911 C 38.352 126.247 41.571 124.38 57.027 120.441 L 52.14 108.338 C 30.418 117.304 26.717 119.018 25.43 141.5 C 20.084 144.043 16.389 149.493 16.389 155.805 C 16.389 164.549 23.478 171.638 32.222 171.638 C 40.966 171.638 48.055 164.549 48.055 155.805 Z" style="stroke: rgb(0, 0, 0); fill: url(#gradient-4);" transform="matrix(0.755174, 0.655524, -0.655524, 0.755174, 100.752602, 10.209703)"/>
  <path d="M 54.775 40.606 C 54.775 47.461 50.418 53.299 44.322 55.501 C 45.072 70.165 48.291 72.032 63.747 75.971 L 58.86 88.075 C 37.138 79.108 33.437 77.394 32.15 54.912 C 26.804 52.369 23.109 46.919 23.109 40.606 C 23.109 31.862 30.198 24.773 38.942 24.773 C 47.686 24.773 54.775 31.862 54.775 40.606 Z" style="stroke: rgb(0, 0, 0); fill: url(#gradient-3);"/>
  <path d="M 230.574 72.99 C 230.574 66.135 226.217 60.297 220.121 58.095 C 220.871 43.431 224.09 41.564 239.546 37.625 L 234.659 25.521 C 212.937 34.488 209.236 36.202 207.949 58.684 C 202.603 61.227 198.908 66.677 198.908 72.99 C 198.908 81.734 205.997 88.823 214.741 88.823 C 223.485 88.823 230.574 81.734 230.574 72.99 Z" style="stroke: rgb(0, 0, 0); fill: url(#gradient-1);" transform="matrix(-1, 0, 0, -1, 438.45401, 114.343998)"/>
  <ellipse style="stroke: rgb(0, 0, 0); fill: url(#gradient-13);" cx="129.848" cy="115.843" rx="81.665" ry="107.762"/>
  <ellipse style="stroke: rgb(0, 0, 0); fill: url(#gradient-6);" cx="97.046" cy="73.097" rx="15.833" ry="15.833"/>
  <ellipse style="stroke: rgb(0, 0, 0); fill: url(#gradient-2);" cx="163.71" cy="73.565" rx="15.833" ry="15.833"/>
  <ellipse style="stroke: rgb(0, 0, 0); fill: url(#gradient-5);" cx="80.935" cy="124.415" rx="15.833" ry="15.833"/>
  <ellipse style="stroke: rgb(0, 0, 0); fill: url(#gradient-10);" cx="180.105" cy="124.412" rx="15.833" ry="15.833"/>
  <ellipse style="stroke: rgb(0, 0, 0); fill: url(#gradient-7);" cx="96.974" cy="173.71" rx="15.833" ry="15.833"/>
  <ellipse style="stroke: rgb(0, 0, 0); fill: url(#gradient-9);" cx="164.309" cy="-174.076" rx="15.833" ry="15.833" transform="matrix(1, 0, 0, -1, 0, 0)"/>
  <path style="stroke-width: 8px; fill: rgb(241, 58, 58); stroke: rgb(34, 34, 34);" d="M 129.877 52.839 L 129.877 222.861"/>
  <ellipse style="stroke: rgb(0, 0, 0); paint-order: fill; fill-rule: nonzero; fill: url(#gradient-0);" cx="130.582" cy="28.667" rx="42.39" ry="28.601"/>
</svg>