<?xml version="1.0" encoding="utf-8"?>
<svg viewBox="0 1.038 125.421 31.201" xmlns="http://www.w3.org/2000/svg">
  <defs>
    <path id="path-0" d="M 4.798 21.486 C 49.523 23.936 73.849 23.154 95.969 28.684 C 102.037 28.684 106.227 29.314 110.365 27.245 C 117.425 26.285 122.095 22.375 127.639 20.527 C 137.461 10.705 122.987 0.04 117.562 -5.385 C 112.816 -6.345 120.543 -12.633 121.401 -13.062 C 124.738 -13.542 121.094 -17.659 119.482 -17.861 C 108.694 -19.209 96.727 -17.861 85.893 -17.861 C 66.003 -17.381 57.132 -13.633 53.263 -2.026 C 49.632 6.197 53.046 11.347 55.182 16.688 C 62.047 26.745 69.714 31.381 76.775 37.801 C 80.217 40.93 81.951 46.22 84.933 49.797 C 97.181 62.045 111.858 65.114 123.8 67.072 C 155.36 72.246 185.498 70.249 216.891 65.632 C 237.556 58.904 247.655 55.44 256.238 48.838 C 260.684 45.418 264.705 40.596 269.674 37.801 C 277.096 33.626 286.364 38.199 293.666 38.761 C 313.106 43.877 311.719 43.034 321.977 47.878 C 326.408 49.97 332.566 53.27 335.892 56.995 C 353.117 76.287 333.33 98.808 325.336 116.976 C 312.401 139.465 306.707 153.49 297.985 161.122 C 282.384 174.772 252.125 176.181 233.205 181.275 C 189.873 195.154 150.893 209.371 161.228 244.135 C 165.293 257.806 175.443 263.298 182.821 274.366 C 243.015 315.626 305.048 304.563 353.647 281.083 C 401.941 257.75 352.325 280.057 385.797 260.93 C 390.838 227.766 378.863 199.606 388.676 176.477 C 393.171 165.88 402.678 161.147 409.789 153.444 C 428.548 146.845 438.917 142.919 449.616 144.327 C 479.069 148.203 490.009 193.424 491.843 217.264 C 492.211 222.048 491.164 226.909 491.843 231.659 L 489.443 245.095 C 485.794 253.609 482.997 260.133 474.568 264.769 C 470.37 267.078 456.814 268.275 456.814 274.366" style="fill: none;"/>
  </defs>
  <path d="M 13.710999963760376 18.992000656127928 Q 13.710999963760376 21.87200065612793 12.494999963760376 23.20000065612793 Q 11.278999963760377 24.52800065612793 8.398999963760376 25.07200065612793 Q 7.6629999637603765 25.20000065612793 3.022999963760376 25.71200065612793 Q 2.958999963760376 25.20000065612793 2.958999963760376 25.00800065612793 Q 2.958999963760376 24.43200065612793 3.246999963760376 23.53600065612793 Q 3.566999963760376 22.44800065612793 3.598999963760376 22.06400065612793 Q 3.694999963760376 21.42400065612793 3.694999963760376 19.85600065612793 Q 3.694999963760376 17.74400065612793 3.470999963760376 13.39200065612793 Q 3.182999963760376 8.208000656127929 2.862999963760376 7.5360006561279285 Q 2.8309999637603758 7.472000656127928 2.190999963760376 6.448000656127931 Q 1.806999963760376 5.8080006561279305 1.806999963760376 5.26400065612793 Q 1.806999963760376 4.496000656127929 2.302999963760376 4.016000656127929 Q 2.7989999637603757 3.5360006561279285 3.566999963760376 3.5360006561279285 Q 3.7589999637603757 3.5360006561279285 3.950999963760376 3.5680006561279285 Q 4.526999963760376 3.4720006561279284 6.318999963760376 2.832000656127928 Q 7.790999963760376 2.320000656127931 8.750999963760375 2.320000656127931 Q 9.422999963760375 2.320000656127931 9.742999963760376 2.352000656127931 Q 11.278999963760377 2.5440006561279276 12.398999963760376 4.6880006561279295 Q 13.390999963760375 6.544000656127928 13.390999963760375 8.30400065612793 Q 13.390999963760375 9.26400065612793 11.022999963760377 12.94400065612793 Q 12.302999963760376 13.840000656127929 13.038999963760377 15.63200065612793 Q 13.710999963760376 17.26400065612793 13.710999963760376 18.992000656127928 Z M 11.054999963760377 7.5360006561279285 Q 11.054999963760377 6.704000656127928 10.350999963760376 5.71200065612793 Q 9.646999963760376 4.7200006561279295 8.878999963760375 4.7200006561279295 Q 7.502999963760376 4.7200006561279295 6.446999963760376 5.32800065612793 Q 5.134999963760376 6.064000656127931 5.134999963760376 7.312000656127928 Q 5.134999963760376 9.744000656127929 5.806999963760376 12.49600065612793 Q 7.470999963760376 12.176000656127929 9.166999963760375 10.70400065612793 Q 11.054999963760377 9.07200065612793 11.054999963760377 7.5360006561279285 Z M 11.310999963760375 18.928000656127928 Q 11.310999963760375 17.58400065612793 10.734999963760377 16.68800065612793 Q 10.094999963760376 15.63200065612793 8.814999963760375 15.63200065612793 Q 8.238999963760376 15.63200065612793 6.030999963760376 16.04800065612793 Q 5.806999963760376 18.70400065612793 5.806999963760376 19.40800065612793 Q 5.806999963760376 21.45600065612793 5.966999963760376 22.928000656127928 L 6.6389999637603765 22.928000656127928 Q 11.310999963760375 23.088000656127928 11.310999963760375 18.928000656127928 Z M 25.13342748260498 13.936000656127929 Q 25.13342748260498 14.86400065612793 24.845427482604983 16.78400065612793 Q 24.55742748260498 18.70400065612793 24.55742748260498 19.72800065612793 Q 24.55742748260498 20.36800065612793 24.70142748260498 21.66400065612793 Q 24.845427482604983 22.96000065612793 24.845427482604983 23.60000065612793 Q 24.845427482604983 26.60800065612793 23.53342748260498 26.60800065612793 Q 22.63742748260498 26.60800065612793 22.63742748260498 25.68000065612793 Q 22.63742748260498 24.62400065612793 21.77342748260498 22.89600065612793 Q 19.08542748260498 24.91200065612793 18.41342748260498 24.91200065612793 Q 16.653427482604982 24.91200065612793 15.597427482604981 22.672000656127928 Q 14.73342748260498 20.84800065612793 14.73342748260498 18.864000656127928 Q 14.73342748260498 17.36000065612793 15.88542748260498 14.41600065612793 Q 17.16542748260498 11.08800065612793 18.34942748260498 11.08800065612793 Q 19.91742748260498 11.08800065612793 19.91742748260498 12.52800065612793 Q 19.91742748260498 13.16800065612793 19.24542748260498 14.032000656127929 Q 18.31742748260498 15.24800065612793 17.99742748260498 15.952000656127929 Q 17.32542748260498 17.42400065612793 17.32542748260498 19.53600065612793 Q 17.32542748260498 21.16800065612793 18.47742748260498 21.16800065612793 Q 20.10942748260498 21.16800065612793 20.94142748260498 18.608000656127928 Q 21.101427482604983 18.19200065612793 21.93342748260498 13.872000656127929 Q 22.44542748260498 11.34400065612793 23.27742748260498 11.34400065612793 Q 24.10942748260498 11.34400065612793 24.653427482604982 12.27200065612793 Q 25.13342748260498 13.07200065612793 25.13342748260498 13.936000656127929 Z M 35.2776593170166 24.17600065612793 Q 35.2776593170166 31.31200065612793 29.3256593170166 31.31200065612793 Q 25.7416593170166 31.31200065612793 25.7416593170166 29.68000065612793 Q 25.7416593170166 28.81600065612793 26.445659317016602 28.81600065612793 Q 26.765659317016603 28.81600065612793 27.405659317016603 29.08800065612793 Q 28.0456593170166 29.36000065612793 28.2376593170166 29.36000065612793 Q 30.573659317016602 29.36000065612793 31.7256593170166 27.63200065612793 Q 32.7496593170166 26.12800065612793 32.7496593170166 23.69600065612793 Q 32.7496593170166 22.992000656127928 32.653659317016604 22.22400065612793 Q 32.1096593170166 21.58400065612793 30.861659317016603 21.39200065612793 Q 30.509659317016602 21.48800065612793 30.125659317016602 21.48800065612793 Q 28.5256593170166 21.48800065612793 27.373659317016603 19.88800065612793 Q 26.285659317016602 18.416000656127927 26.285659317016602 16.75200065612793 Q 26.285659317016602 14.83200065612793 27.277659317016603 13.39200065612793 Q 28.3976593170166 11.728000656127929 30.253659317016602 11.728000656127929 Q 32.6856593170166 11.728000656127929 33.805659317016605 15.08800065612793 Q 34.0936593170166 15.984000656127929 34.1256593170166 17.48800065612793 L 34.1256593170166 18.83200065612793 Q 34.1256593170166 19.88800065612793 34.2536593170166 20.59200065612793 Q 34.317659317016606 20.84800065612793 34.8296593170166 22.51200065612793 Q 35.2776593170166 24.04800065612793 35.2776593170166 24.17600065612793 Z M 32.3016593170166 18.928000656127928 Q 32.3016593170166 18.16000065612793 31.2776593170166 16.62400065612793 Q 30.829659317016603 15.920000656127929 29.7736593170166 15.920000656127929 Q 28.8136593170166 15.920000656127929 28.8136593170166 17.13600065612793 Q 28.8136593170166 18.22400065612793 29.5496593170166 18.91200065612793 Q 30.285659317016602 19.60000065612793 31.373659317016603 19.60000065612793 Q 32.3016593170166 19.60000065612793 32.3016593170166 18.928000656127928 Z M 55.91573303222656 5.8080006561279305 Q 55.91573303222656 6.448000656127931 52.17173303222656 8.208000656127929 Q 48.42773303222656 9.968000656127929 48.42773303222656 10.80000065612793 Q 48.42773303222656 10.99200065612793 48.52373303222656 11.12000065612793 Q 49.451733032226564 12.176000656127929 51.499733032226565 12.81600065612793 Q 54.027733032226564 13.58400065612793 54.475733032226564 13.872000656127929 Q 55.85173303222656 14.70400065612793 55.85173303222656 16.52800065612793 Q 55.85173303222656 18.70400065612793 53.00373303222656 20.78400065612793 Q 50.95573303222656 22.22400065612793 48.13973303222656 23.248000656127928 Q 46.12373303222656 23.98400065612793 45.29173303222656 23.98400065612793 Q 44.74773303222656 23.98400065612793 44.33173303222656 23.55200065612793 Q 43.91573303222656 23.120000656127928 43.91573303222656 22.57600065612793 Q 43.91573303222656 22.16000065612793 44.23573303222656 21.87200065612793 Q 46.18773303222656 21.36000065612793 49.19573303222656 19.79200065612793 Q 52.87573303222656 17.87200065612793 52.87573303222656 16.68800065612793 Q 52.87573303222656 15.24800065612793 50.76373303222656 14.80000065612793 Q 48.81173303222656 14.41600065612793 46.859733032226565 14.032000656127929 Q 44.74773303222656 13.32800065612793 44.74773303222656 11.24800065612793 Q 44.74773303222656 10.032000656127929 48.77973303222656 7.088000656127928 Q 52.71573303222657 4.208000656127929 54.091733032226564 4.208000656127929 Q 54.76373303222656 4.208000656127929 55.33973303222656 4.6880006561279295 Q 55.91573303222656 5.16800065612793 55.91573303222656 5.8080006561279305 Z M 66.50853912353516 25.68000065612793 Q 66.50853912353516 26.16000065612793 66.14053912353515 26.51200065612793 Q 65.77253912353515 26.864000656127928 65.29253912353516 26.864000656127928 Q 64.39653912353515 26.864000656127928 63.564539123535155 22.25600065612793 Q 62.70053912353516 17.45600065612793 62.31653912353516 17.26400065612793 Q 62.156539123535154 17.20000065612793 61.964539123535154 17.20000065612793 Q 61.22853912353516 17.20000065612793 61.02053912353516 18.88000065612793 Q 60.81253912353516 20.56000065612793 60.62053912353515 22.19200065612793 Q 60.268539123535156 23.95200065612793 59.308539123535155 23.95200065612793 Q 58.860539123535155 23.95200065612793 58.396539123535156 23.47200065612793 Q 57.93253912353516 22.992000656127928 57.772539123535154 22.51200065612793 Q 57.708539123535154 22.35200065612793 57.708539123535154 21.58400065612793 Q 57.708539123535154 19.98400065612793 57.884539123535156 16.75200065612793 Q 58.06053912353516 13.52000065612793 58.06053912353516 11.920000656127929 Q 58.06053912353516 10.73600065612793 57.580539123535154 8.832000656127928 Q 57.10053912353516 6.928000656127928 57.10053912353516 6.256000656127931 Q 57.10053912353516 5.8400006561279305 57.59653912353516 5.52000065612793 Q 58.092539123535154 5.20000065612793 58.57253912353516 5.20000065612793 Q 59.27653912353516 5.20000065612793 59.66053912353516 7.312000656127928 Q 59.884539123535156 9.32800065612793 60.140539123535156 11.31200065612793 Q 60.396539123535156 13.48800065612793 60.84453912353516 13.58400065612793 Q 62.028539123535154 13.808000656127929 62.70053912353516 14.256000656127929 Q 64.68453912353516 15.56800065612793 65.70853912353516 19.44000065612793 Q 66.50853912353516 22.41600065612793 66.50853912353516 25.68000065612793 Z M 75.59530633544922 18.03200065612793 Q 75.59530633544922 19.82400065612793 74.15530633544923 21.61600065612793 Q 72.61930633544922 23.50400065612793 70.89130633544922 23.50400065612793 Q 69.09930633544921 23.50400065612793 68.02730633544923 22.19200065612793 Q 66.95530633544922 20.88000065612793 66.95530633544922 19.056000656127928 Q 66.95530633544922 18.480000656127928 67.46730633544922 16.62400065612793 Q 67.91530633544922 15.05600065612793 68.23530633544922 14.192000656127929 Q 68.42730633544922 13.744000656127929 68.42730633544922 13.61600065612793 Q 68.42730633544922 13.48800065612793 68.29930633544922 13.48800065612793 Q 68.13930633544922 13.48800065612793 67.85130633544922 13.61600065612793 Q 67.56330633544921 13.744000656127929 67.40330633544922 13.744000656127929 Q 67.14730633544922 13.744000656127929 67.14730633544922 13.42400065612793 Q 67.14730633544922 12.30400065612793 68.55530633544922 11.28000065612793 Q 69.83530633544922 10.28800065612793 71.01930633544922 10.28800065612793 Q 72.68330633544922 10.28800065612793 74.21930633544922 13.39200065612793 Q 75.59530633544922 16.14400065612793 75.59530633544922 18.03200065612793 Z M 73.16330633544922 17.45600065612793 Q 73.16330633544922 14.96000065612793 71.53130633544922 14.96000065612793 Q 70.44330633544922 14.96000065612793 69.77130633544922 16.52800065612793 Q 69.22730633544921 17.77600065612793 69.22730633544921 19.056000656127928 Q 69.22730633544921 19.88800065612793 69.43530633544921 20.25600065612793 Q 69.64330633544922 20.62400065612793 70.41130633544923 20.97600065612793 Q 70.53930633544923 21.04000065612793 70.76330633544922 21.04000065612793 Q 71.81930633544921 21.04000065612793 72.55530633544922 19.72800065612793 Q 73.16330633544922 18.608000656127928 73.16330633544922 17.45600065612793 Z M 84.7147826538086 18.03200065612793 Q 84.7147826538086 19.82400065612793 83.2747826538086 21.61600065612793 Q 81.7387826538086 23.50400065612793 80.01078265380859 23.50400065612793 Q 78.21878265380859 23.50400065612793 77.1467826538086 22.19200065612793 Q 76.0747826538086 20.88000065612793 76.0747826538086 19.056000656127928 Q 76.0747826538086 18.480000656127928 76.5867826538086 16.62400065612793 Q 77.03478265380859 15.05600065612793 77.3547826538086 14.192000656127929 Q 77.54678265380859 13.744000656127929 77.54678265380859 13.61600065612793 Q 77.54678265380859 13.48800065612793 77.41878265380859 13.48800065612793 Q 77.2587826538086 13.48800065612793 76.9707826538086 13.61600065612793 Q 76.68278265380859 13.744000656127929 76.52278265380859 13.744000656127929 Q 76.26678265380859 13.744000656127929 76.26678265380859 13.42400065612793 Q 76.26678265380859 12.30400065612793 77.67478265380859 11.28000065612793 Q 78.95478265380859 10.28800065612793 80.13878265380859 10.28800065612793 Q 81.80278265380859 10.28800065612793 83.3387826538086 13.39200065612793 Q 84.7147826538086 16.14400065612793 84.7147826538086 18.03200065612793 Z M 82.2827826538086 17.45600065612793 Q 82.2827826538086 14.96000065612793 80.65078265380859 14.96000065612793 Q 79.5627826538086 14.96000065612793 78.8907826538086 16.52800065612793 Q 78.34678265380859 17.77600065612793 78.34678265380859 19.056000656127928 Q 78.34678265380859 19.88800065612793 78.55478265380859 20.25600065612793 Q 78.7627826538086 20.62400065612793 79.5307826538086 20.97600065612793 Q 79.6587826538086 21.04000065612793 79.88278265380859 21.04000065612793 Q 80.93878265380859 21.04000065612793 81.67478265380859 19.72800065612793 Q 82.2827826538086 18.608000656127928 82.2827826538086 17.45600065612793 Z M 98.7302666015625 11.34400065612793 Q 98.7302666015625 12.176000656127929 97.1942666015625 12.62400065612793 Q 95.7542666015625 12.91200065612793 94.3462666015625 13.20000065612793 Q 92.8102666015625 13.58400065612793 92.8102666015625 14.224000656127929 Q 92.8102666015625 15.24800065612793 93.0662666015625 17.04000065612793 Q 93.3862666015625 19.15200065612793 93.4502666015625 19.88800065612793 Q 93.54626660156251 21.23200065612793 93.54626660156251 22.41600065612793 Q 93.54626660156251 24.11200065612793 93.3862666015625 24.59200065612793 Q 93.0342666015625 25.71200065612793 91.7862666015625 25.71200065612793 Q 91.0182666015625 25.71200065612793 91.0182666015625 25.20000065612793 Q 91.0182666015625 24.88000065612793 91.1302666015625 23.87200065612793 Q 91.2422666015625 22.864000656127928 91.2422666015625 22.35200065612793 Q 91.2422666015625 17.26400065612793 90.5062666015625 15.24800065612793 Q 90.3782666015625 14.92800065612793 90.2822666015625 14.92800065612793 Q 90.0262666015625 14.92800065612793 88.4902666015625 16.160000656127927 Q 86.9542666015625 17.39200065612793 86.4742666015625 17.39200065612793 Q 85.8022666015625 17.39200065612793 85.4182666015625 16.78400065612793 Q 85.0982666015625 16.27200065612793 85.0982666015625 15.53600065612793 Q 85.0982666015625 14.54400065612793 86.3782666015625 13.904000656127929 Q 87.5622666015625 13.39200065612793 88.7462666015625 12.88000065612793 Q 90.0262666015625 12.176000656127929 90.0262666015625 10.99200065612793 Q 90.0262666015625 10.192000656127929 89.6902666015625 8.608000656127928 Q 89.3542666015625 7.024000656127928 89.3542666015625 6.224000656127931 Q 89.3542666015625 4.368000656127929 90.5702666015625 4.368000656127929 Q 91.6902666015625 4.368000656127929 91.9462666015625 6.896000656127928 Q 92.0102666015625 8.59200065612793 92.0742666015625 10.32000065612793 Q 92.1382666015625 11.18400065612793 92.8102666015625 11.18400065612793 Q 93.6102666015625 11.18400065612793 95.0662666015625 10.57600065612793 Q 96.5222666015625 9.968000656127929 97.2262666015625 9.968000656127929 Q 97.7702666015625 9.968000656127929 98.2502666015625 10.40000065612793 Q 98.7302666015625 10.83200065612793 98.7302666015625 11.34400065612793 Z M 103.62745092773437 9.39200065612793 Q 103.62745092773437 9.968000656127929 102.74745092773438 10.67200065612793 Q 101.86745092773438 11.37600065612793 101.29145092773437 11.37600065612793 Q 99.91545092773437 11.37600065612793 99.91545092773437 9.808000656127929 Q 99.91545092773437 9.23200065612793 100.60345092773437 8.33600065612793 Q 101.29145092773437 7.440000656127928 101.80345092773437 7.440000656127928 Q 102.44345092773438 7.440000656127928 103.03545092773437 8.09600065612793 Q 103.62745092773437 8.75200065612793 103.62745092773437 9.39200065612793 Z M 102.37945092773438 17.64800065612793 Q 102.37945092773438 18.672000656127928 101.57945092773437 22.38400065612793 Q 100.74745092773438 26.32000065612793 100.37945092773438 26.59200065612793 Q 100.01145092773437 26.864000656127928 99.69145092773438 26.864000656127928 Q 99.11545092773437 26.864000656127928 98.73145092773437 26.16000065612793 Q 98.44345092773438 25.55200065612793 98.44345092773438 24.91200065612793 Q 98.44345092773438 24.27200065612793 98.63545092773437 23.28000065612793 Q 98.92345092773438 21.93600065612793 98.95545092773438 21.68000065612793 Q 99.01945092773437 21.29600065612793 99.33945092773438 16.40000065612793 Q 99.37145092773437 15.888000656127929 99.70745092773437 15.36000065612793 Q 100.04345092773437 14.83200065612793 100.52345092773437 14.83200065612793 Q 102.37945092773438 14.83200065612793 102.37945092773438 17.64800065612793 Z M 113.41719970703124 18.57600065612793 Q 113.41719970703124 21.90400065612793 112.42519970703125 21.90400065612793 Q 111.81719970703125 21.90400065612793 111.43319970703125 19.88800065612793 Q 111.14519970703125 18.03200065612793 110.82519970703125 16.17600065612793 Q 110.37719970703125 14.192000656127929 109.64119970703125 14.192000656127929 Q 108.55319970703125 14.192000656127929 107.62519970703126 17.93600065612793 Q 107.08119970703125 20.33600065612793 106.56919970703125 22.736000656127928 Q 106.31319970703125 23.66400065612793 106.05719970703124 23.66400065612793 Q 104.96919970703125 23.66400065612793 104.39319970703124 18.736000656127928 Q 104.00919970703124 15.40800065612793 104.00919970703124 12.59200065612793 Q 104.00919970703124 12.048000656127929 104.20119970703125 11.53600065612793 Q 104.45719970703125 10.83200065612793 104.93719970703125 10.83200065612793 Q 105.76919970703125 10.83200065612793 107.20919970703125 12.46400065612793 Q 108.68119970703125 10.96000065612793 109.22519970703125 10.96000065612793 Q 111.30519970703125 10.96000065612793 112.48919970703125 13.840000656127929 Q 113.41719970703124 16.11200065612793 113.41719970703124 18.57600065612793 Z M 123.65749444580078 24.17600065612793 Q 123.65749444580078 31.31200065612793 117.70549444580078 31.31200065612793 Q 114.12149444580078 31.31200065612793 114.12149444580078 29.68000065612793 Q 114.12149444580078 28.81600065612793 114.82549444580079 28.81600065612793 Q 115.14549444580078 28.81600065612793 115.78549444580078 29.08800065612793 Q 116.42549444580078 29.36000065612793 116.61749444580079 29.36000065612793 Q 118.95349444580079 29.36000065612793 120.10549444580079 27.63200065612793 Q 121.12949444580079 26.12800065612793 121.12949444580079 23.69600065612793 Q 121.12949444580079 22.992000656127928 121.03349444580078 22.22400065612793 Q 120.48949444580079 21.58400065612793 119.24149444580078 21.39200065612793 Q 118.88949444580078 21.48800065612793 118.50549444580078 21.48800065612793 Q 116.90549444580078 21.48800065612793 115.75349444580078 19.88800065612793 Q 114.66549444580077 18.416000656127927 114.66549444580077 16.75200065612793 Q 114.66549444580077 14.83200065612793 115.65749444580078 13.39200065612793 Q 116.77749444580078 11.728000656127929 118.63349444580078 11.728000656127929 Q 121.06549444580078 11.728000656127929 122.18549444580079 15.08800065612793 Q 122.47349444580078 15.984000656127929 122.50549444580078 17.48800065612793 L 122.50549444580078 18.83200065612793 Q 122.50549444580078 19.88800065612793 122.63349444580078 20.59200065612793 Q 122.69749444580079 20.84800065612793 123.20949444580079 22.51200065612793 Q 123.65749444580078 24.04800065612793 123.65749444580078 24.17600065612793 Z M 120.68149444580078 18.928000656127928 Q 120.68149444580078 18.16000065612793 119.65749444580078 16.62400065612793 Q 119.20949444580079 15.920000656127929 118.15349444580079 15.920000656127929 Q 117.19349444580078 15.920000656127929 117.19349444580078 17.13600065612793 Q 117.19349444580078 18.22400065612793 117.92949444580078 18.91200065612793 Q 118.66549444580077 19.60000065612793 119.75349444580078 19.60000065612793 Q 120.68149444580078 19.60000065612793 120.68149444580078 18.928000656127928 Z" transform="matrix(1, 0, 0, 1, 0, 0)" style="white-space: pre; stroke-width: 0px; fill: rgb(255, 255, 255);"/>
</svg>