<?xml version="1.0" encoding="utf-8"?>
<svg viewBox="0 0 128.119 37.428" xmlns="http://www.w3.org/2000/svg">
  <defs>
    <path id="path-0" d="M 4.798 21.486 C 49.523 23.936 73.849 23.154 95.969 28.684 C 102.037 28.684 106.227 29.314 110.365 27.245 C 117.425 26.285 122.095 22.375 127.639 20.527 C 137.461 10.705 122.987 0.04 117.562 -5.385 C 112.816 -6.345 120.543 -12.633 121.401 -13.062 C 124.738 -13.542 121.094 -17.659 119.482 -17.861 C 108.694 -19.209 96.727 -17.861 85.893 -17.861 C 66.003 -17.381 57.132 -13.633 53.263 -2.026 C 49.632 6.197 53.046 11.347 55.182 16.688 C 62.047 26.745 69.714 31.381 76.775 37.801 C 80.217 40.93 81.951 46.22 84.933 49.797 C 97.181 62.045 111.858 65.114 123.8 67.072 C 155.36 72.246 185.498 70.249 216.891 65.632 C 237.556 58.904 247.655 55.44 256.238 48.838 C 260.684 45.418 264.705 40.596 269.674 37.801 C 277.096 33.626 286.364 38.199 293.666 38.761 C 313.106 43.877 311.719 43.034 321.977 47.878 C 326.408 49.97 332.566 53.27 335.892 56.995 C 353.117 76.287 333.33 98.808 325.336 116.976 C 312.401 139.465 306.707 153.49 297.985 161.122 C 282.384 174.772 252.125 176.181 233.205 181.275 C 189.873 195.154 150.893 209.371 161.228 244.135 C 165.293 257.806 175.443 263.298 182.821 274.366 C 243.015 315.626 305.048 304.563 353.647 281.083 C 401.941 257.75 352.325 280.057 385.797 260.93 C 390.838 227.766 378.863 199.606 388.676 176.477 C 393.171 165.88 402.678 161.147 409.789 153.444 C 428.548 146.845 438.917 142.919 449.616 144.327 C 479.069 148.203 490.009 193.424 491.843 217.264 C 492.211 222.048 491.164 226.909 491.843 231.659 L 489.443 245.095 C 485.794 253.609 482.997 260.133 474.568 264.769 C 470.37 267.078 456.814 268.275 456.814 274.366" style="fill: none;"/>
  </defs>
  <text style="fill: rgb(255, 255, 255); font-family: Another; font-size: 32px; font-weight: 700; white-space: pre;" x="1.44" y="29.271">Bug SHooting</text>
</svg>